<?xml version="1.0" encoding="UTF-8"?>
<svg id="Capa_1" data-name="Capa 1" xmlns="http://www.w3.org/2000/svg" viewBox="0 0 250 100">
  <defs>
    <style>
      .cls-1 {
        fill: #1a1a1a;
      }
    </style>
  </defs>
  <path class="cls-1" d="M29.94,72.05h-3.71v-28.07c0-.4.13-1.56.4-3.48l-7.25,27.39h-.79l-7.25-27.39c.26,1.94.4,3.11.4,3.48v28.07h-3.71V27.73h3.65l7.19,28.83c.04.15.08.58.11,1.27,0-.28.04-.71.11-1.27l7.19-28.83h3.65v44.32Z"/>
  <path class="cls-1" d="M52.14,72.05h-3.71v-.76c-1.49.21-2.98.41-4.47.59-1.85.23-3.33.34-4.45.34-2.06,0-3.09-1.02-3.09-3.06v-10.05c0-2.11,1.07-3.17,3.2-3.17h8.86v-8.3h-8.1v4.7h-3.65v-4.64c0-2.13,1.06-3.2,3.17-3.2h9.06c2.11,0,3.17,1.07,3.17,3.2v24.36ZM48.49,68.62v-9.74h-8.41v9.91l8.41-.17Z"/>
  <path class="cls-1" d="M68.22,72.05h-5.35c-2.11,0-3.17-1.07-3.17-3.2v-21.04h-3.31v-3.31h3.31v-8.58h3.71v8.58h4.81v3.31h-4.81v20.93h4.81v3.31Z"/>
  <path class="cls-1" d="M88.45,68.85c0,2.13-1.06,3.2-3.17,3.2h-9.06c-2.11,0-3.17-1.07-3.17-3.2v-21.16c0-2.13,1.06-3.2,3.17-3.2h9.06c2.11,0,3.17,1.07,3.17,3.2v9.91l-1.27,1.33h-10.48v9.97h8.1v-5.04h3.65v4.98ZM84.79,55.94v-8.3h-8.1v8.3h8.1Z"/>
  <path class="cls-1" d="M110.51,68.85c0,2.13-1.07,3.2-3.2,3.2h-9.46c-2.11,0-3.17-1.07-3.17-3.2v-21.16c0-2.13,1.06-3.2,3.17-3.2h9.46c2.13,0,3.2,1.07,3.2,3.2v21.16ZM106.74,68.74v-20.93h-8.3v20.93h8.3Z"/>
  <path class="cls-1" d="M150.04,72.05h-6.57l-1.33-8.41h-8.3l-1.33,8.41h-6.54v-.11l8.58-44.26h6.97l8.52,44.38ZM141.21,57.95l-3.23-19.99-3.26,19.99h6.49Z"/>
  <path class="cls-1" d="M159.95,72.05h-6.37V27.73h6.37v44.32Z"/>
  <path class="cls-1" d="M180.94,72.05h-17.22v-3.82l9.52-19.48h-8.75v-5.3h16.45v3.85l-9.57,19.48h9.57v5.27Z"/>
  <path class="cls-1" d="M203.34,72.05h-6.2v-.99l-4.42.68c-1.93.28-3.39.42-4.39.42-2.36,0-3.54-1.16-3.54-3.48v-10.31c0-2.36,1.22-3.54,3.65-3.54h8.75v-6.57h-6.2v4.08h-5.86v-5.35c0-2.36,1.22-3.54,3.65-3.54h10.96c2.4,0,3.6,1.18,3.6,3.54v25.06ZM197.2,66.9v-7.67h-6.2v7.9l6.2-.23Z"/>
  <path class="cls-1" d="M220.33,72.05h-7.19c-2.4,0-3.6-1.18-3.6-3.54v-19.54h-3.06v-5.52h3.06v-7.76h6.46v7.76h4.16v5.52h-4.16v17.56h4.33v5.52Z"/>
  <path class="cls-1" d="M242.42,68.51c0,2.36-1.22,3.54-3.65,3.54h-11.19c-2.44,0-3.65-1.18-3.65-3.54v-21.52c0-2.36,1.22-3.54,3.65-3.54h11.19c2.44,0,3.65,1.18,3.65,3.54v10.51l-1.78,1.78h-10.51v8.01h6.09v-4.76h6.2v5.98ZM236.22,55.06v-6.85h-6.09v6.85h6.09Z"/>
</svg>